#Comment line ignore any data following # character 
#Hierarchical Translation and Rotation (.htr) file 
[Header]	
#Header keywords are followed by a single value 
FileType HTR		#Single word string
DataType HTRS		#Translation followed by rotation and scale data
FileVersion 1		#integer
NumSegments 64		#integer
NumFrames 3		#integer
DataFrameRate 30		#integer, data frame rate in this file
EulerRotationOrder ZYX
CalibrationUnits mm
RotationUnits Degrees
GlobalAxisofGravity Y
BoneLengthAxis Y
ScaleFactor 1.00
[SegmentNames&Hierarchy]
#CHILD	PARENT
Pinger_Root GLOBAL
Pelvis Pinger_Root
L_Hip Pelvis
R_Hip Pelvis
Rear_Leg01 Pelvis
Spine1 Pelvis
L_Leg01 L_Hip
L_Leg02 L_Leg01
L_Leg03 L_Leg02
L_Foot L_Leg03
L_Toe1_01 L_Foot
L_Toe2_01 L_Foot
L_Toe3_01 L_Foot
planeAlignerLeft L_Foot
L_Toe1_02 L_Toe1_01
L_Toe1_03 L_Toe1_02
L_Toe2_02 L_Toe2_01
L_Toe2_03 L_Toe2_02
L_Toe3_02 L_Toe3_01
L_Toe3_03 L_Toe3_02
planeLockWeightLeft planeAlignerLeft
R_Leg01 R_Hip
R_Leg02 R_Leg01
R_Leg03 R_Leg02
R_Foot R_Leg03
planeAlignerRight R_Foot
R_Toe1_01 R_Foot
R_Toe2_01 R_Foot
R_Toe3_01 R_Foot
planeLockWeightRight planeAlignerRight
R_Toe1_02 R_Toe1_01
R_Toe1_03 R_Toe1_02
R_Toe2_02 R_Toe2_01
R_Toe2_03 R_Toe2_02
R_Toe3_02 R_Toe3_01
R_Toe3_03 R_Toe3_02
Rear_Leg02 Rear_Leg01
Rear_Leg03 Rear_Leg02
Rear_Leg04 Rear_Leg03
Rear_Foot Rear_Leg04
planeAlignerCenter Rear_Foot
Rear_Toe1_01 Rear_Foot
Rear_Toe2_01 Rear_Foot
Rear_Toe3_01 Rear_Foot
planeLockWeightCenter planeAlignerCenter
Rear_Toe1_02 Rear_Toe1_01
Rear_Toe1_03 Rear_Toe1_02
Rear_Toe2_02 Rear_Toe2_01
Rear_Toe2_03 Rear_Toe2_02
Rear_Toe3_02 Rear_Toe3_01
Rear_Toe3_03 Rear_Toe3_02
Back_Bone Spine1
Head Spine1
Motor_Bone Back_Bone
Ping_Mechanism Back_Bone
BN_LookIK Head
bottomMouth Head
L_Mouth01 Head
L_mouthFront Head
mouthGun Head
R_Mouth01 Head
R_mouthFront Head
TopMouth Head
weapon_bone Head
[BasePosition]
#SegmentName Tx, Ty, Tz, Rx, Ry, Rz, BoneLength
Pinger_Root 0.000000 0.000000 0.000000 -90.000000 0.000000 0.000000 10.000000 
Pelvis 0.000000 0.000000 0.000000 0.000000 0.000000 0.000000 10.000000 
L_Hip 0.000000 0.000000 0.000000 0.000000 0.000000 0.000000 10.000000 
R_Hip 0.000000 0.000000 0.000000 0.000000 0.000000 0.000000 10.000000 
Rear_Leg01 0.000000 0.000000 0.000000 0.000000 0.000000 0.000000 10.000000 
Spine1 0.000000 0.000000 0.000000 0.000000 0.000000 0.000000 10.000000 
L_Leg01 0.000000 0.000000 0.000000 0.000000 0.000000 0.000000 10.000000 
L_Leg02 0.000000 0.000000 0.000000 0.000000 0.000000 0.000000 10.000000 
L_Leg03 0.000000 0.000000 0.000000 0.000000 0.000000 0.000000 10.000000 
L_Foot 0.000000 0.000000 0.000000 0.000000 0.000000 0.000000 10.000000 
L_Toe1_01 0.000000 0.000000 0.000000 0.000000 0.000000 0.000000 10.000000 
L_Toe2_01 0.000000 0.000000 0.000000 0.000000 0.000000 0.000000 10.000000 
L_Toe3_01 0.000000 0.000000 0.000000 0.000000 0.000000 0.000000 10.000000 
planeAlignerLeft 0.000000 0.000000 0.000000 0.000000 0.000000 0.000000 10.000000 
L_Toe1_02 0.000000 0.000000 0.000000 0.000000 0.000000 0.000000 10.000000 
L_Toe1_03 0.000000 0.000000 0.000000 0.000000 0.000000 0.000000 10.000000 
L_Toe2_02 0.000000 0.000000 0.000000 0.000000 0.000000 0.000000 10.000000 
L_Toe2_03 0.000000 0.000000 0.000000 0.000000 0.000000 0.000000 10.000000 
L_Toe3_02 0.000000 0.000000 0.000000 0.000000 0.000000 0.000000 10.000000 
L_Toe3_03 0.000000 0.000000 0.000000 0.000000 0.000000 0.000000 10.000000 
planeLockWeightLeft 0.000000 0.000000 0.000000 0.000000 0.000000 0.000000 10.000000 
R_Leg01 0.000000 0.000000 0.000000 0.000000 0.000000 0.000000 10.000000 
R_Leg02 0.000000 0.000000 0.000000 0.000000 0.000000 0.000000 10.000000 
R_Leg03 0.000000 0.000000 0.000000 0.000000 0.000000 0.000000 10.000000 
R_Foot 0.000000 0.000000 0.000000 0.000000 0.000000 0.000000 10.000000 
planeAlignerRight 0.000000 0.000000 0.000000 0.000000 0.000000 0.000000 10.000000 
R_Toe1_01 0.000000 0.000000 0.000000 0.000000 0.000000 0.000000 10.000000 
R_Toe2_01 0.000000 0.000000 0.000000 0.000000 0.000000 0.000000 10.000000 
R_Toe3_01 0.000000 0.000000 0.000000 0.000000 0.000000 0.000000 10.000000 
planeLockWeightRight 0.000000 0.000000 0.000000 0.000000 0.000000 0.000000 10.000000 
R_Toe1_02 0.000000 0.000000 0.000000 0.000000 0.000000 0.000000 10.000000 
R_Toe1_03 0.000000 0.000000 0.000000 0.000000 0.000000 0.000000 10.000000 
R_Toe2_02 0.000000 0.000000 0.000000 0.000000 0.000000 0.000000 10.000000 
R_Toe2_03 0.000000 0.000000 0.000000 0.000000 0.000000 0.000000 10.000000 
R_Toe3_02 0.000000 0.000000 0.000000 0.000000 0.000000 0.000000 10.000000 
R_Toe3_03 0.000000 0.000000 0.000000 0.000000 0.000000 0.000000 10.000000 
Rear_Leg02 0.000000 0.000000 0.000000 0.000000 0.000000 0.000000 10.000000 
Rear_Leg03 0.000000 0.000000 0.000000 0.000000 0.000000 0.000000 10.000000 
Rear_Leg04 0.000000 0.000000 0.000000 0.000000 0.000000 0.000000 10.000000 
Rear_Foot 0.000000 0.000000 0.000000 0.000000 0.000000 0.000000 10.000000 
planeAlignerCenter 0.000000 0.000000 0.000000 0.000000 0.000000 0.000000 10.000000 
Rear_Toe1_01 0.000000 0.000000 0.000000 0.000000 0.000000 0.000000 10.000000 
Rear_Toe2_01 0.000000 0.000000 0.000000 0.000000 0.000000 0.000000 10.000000 
Rear_Toe3_01 0.000000 0.000000 0.000000 0.000000 0.000000 0.000000 10.000000 
planeLockWeightCenter 0.000000 0.000000 0.000000 0.000000 0.000000 0.000000 10.000000 
Rear_Toe1_02 0.000000 0.000000 0.000000 0.000000 0.000000 0.000000 10.000000 
Rear_Toe1_03 0.000000 0.000000 0.000000 0.000000 0.000000 0.000000 10.000000 
Rear_Toe2_02 0.000000 0.000000 0.000000 0.000000 0.000000 0.000000 10.000000 
Rear_Toe2_03 0.000000 0.000000 0.000000 0.000000 0.000000 0.000000 10.000000 
Rear_Toe3_02 0.000000 0.000000 0.000000 0.000000 0.000000 0.000000 10.000000 
Rear_Toe3_03 0.000000 0.000000 0.000000 0.000000 0.000000 0.000000 10.000000 
Back_Bone 0.000000 0.000000 0.000000 0.000000 0.000000 0.000000 10.000000 
Head 0.000000 0.000000 0.000000 0.000000 0.000000 0.000000 10.000000 
Motor_Bone 0.000000 0.000000 0.000000 0.000000 0.000000 0.000000 10.000000 
Ping_Mechanism 0.000000 0.000000 0.000000 0.000000 0.000000 0.000000 10.000000 
BN_LookIK 0.000000 0.000000 0.000000 0.000000 0.000000 0.000000 10.000000 
bottomMouth 0.000000 0.000000 0.000000 0.000000 0.000000 0.000000 10.000000 
L_Mouth01 0.000000 0.000000 0.000000 0.000000 0.000000 0.000000 10.000000 
L_mouthFront 0.000000 0.000000 0.000000 0.000000 0.000000 0.000000 10.000000 
mouthGun 0.000000 0.000000 0.000000 0.000000 0.000000 0.000000 10.000000 
R_Mouth01 0.000000 0.000000 0.000000 0.000000 0.000000 0.000000 10.000000 
R_mouthFront 0.000000 0.000000 0.000000 0.000000 0.000000 0.000000 10.000000 
TopMouth 0.000000 0.000000 0.000000 0.000000 0.000000 0.000000 10.000000 
weapon_bone 0.000000 0.000000 0.000000 0.000000 0.000000 0.000000 10.000000 
#Beginning of Data. Separated by tabs
#Fr	Tx	Ty	Tz	Rx	Ry	Rz	SF
[Pinger_Root]
19 0.000000 0.000000 0.000000 -0.000075 -0.000000 -0.000020 0.000000
20 0.000000 0.000000 0.000000 -0.000075 -0.000000 -0.000020 0.000000
21 0.000000 0.000000 0.000000 -0.000075 -0.000000 -0.000020 0.000000
[Pelvis]
19 -433.166290 1135.739624 2985.787842 -74.745056 -78.747437 62.162903 3223.734863
20 -433.166290 1135.739624 2985.787842 -74.745056 -78.747437 62.162903 3223.734863
21 -433.166290 1135.739624 2985.787842 -74.745056 -78.747437 62.162903 3223.734863
[L_Hip]
19 5.766392 125.831482 872.656799 -170.548889 -57.246498 91.347282 881.701050
20 5.766392 125.831482 872.656799 -170.548401 -57.247063 91.346428 881.701050
21 5.766392 125.831482 872.656799 -170.547913 -57.247627 91.345566 881.701050
[R_Hip]
19 5.765438 125.836372 -872.654907 -20.262281 57.233593 56.271187 881.699829
20 5.765438 125.836372 -872.654907 -20.262836 57.234100 56.270908 881.699829
21 5.765438 125.836372 -872.654907 -20.263407 57.234631 56.270638 881.699829
[Rear_Leg01]
19 -192.298416 -925.602966 -0.001907 -173.603302 18.242077 -111.241615 945.367432
20 -192.298416 -925.602966 -0.001907 -173.603302 18.242077 -111.241615 945.367432
21 -192.298416 -925.602966 -0.001907 -173.603302 18.242077 -111.241615 945.367432
[Spine1]
19 290.604584 5.007505 0.000477 10.134881 -13.754622 15.909466 290.647736
20 290.604584 5.007505 0.000477 10.134632 -13.754958 15.909857 290.647736
21 290.604584 5.007505 0.000477 10.134381 -13.755290 15.910246 290.647736
[L_Leg01]
19 761.932007 -0.002384 -0.069261 -2.209024 16.960550 -96.637238 761.932068
20 761.932007 -0.002384 -0.069261 -2.209024 16.960550 -96.637238 761.932068
21 761.932007 -0.002384 -0.069261 -2.209024 16.960550 -96.637238 761.932068
[L_Leg02]
19 1441.140503 -0.000954 -0.000715 22.988432 27.612614 -99.747955 1441.140503
20 1441.140503 -0.000954 -0.000715 22.988432 27.612614 -99.747955 1441.140503
21 1441.140503 -0.000954 -0.000715 22.988432 27.612614 -99.747955 1441.140503
[L_Leg03]
19 1686.963989 -0.000715 -0.000954 -0.195298 0.149535 163.251740 1686.963989
20 1686.963989 -0.000715 -0.000954 -0.195298 0.149535 163.251740 1686.963989
21 1686.963989 -0.000715 -0.000954 -0.195298 0.149535 163.251740 1686.963989
[L_Foot]
19 3041.570068 -30.715107 11.297464 7.624716 -1.347613 60.355801 3041.746094
20 3041.570068 -30.715107 11.297464 7.624716 -1.347613 60.355801 3041.746094
21 3041.570068 -30.715107 11.297464 7.624718 -1.347613 60.355808 3041.746094
[L_Toe1_01]
19 -188.216690 -224.732346 -21.137953 95.284149 -10.219460 171.466217 293.899567
20 -188.216690 -224.732346 -21.137953 95.284119 -10.219740 171.467606 293.899567
21 -188.216690 -224.732346 -21.137953 95.284081 -10.220015 171.468994 293.899567
[L_Toe2_01]
19 200.746536 -219.926590 148.838394 -94.252426 -34.147057 -36.978592 332.896027
20 200.746536 -219.926590 148.838394 -94.251686 -34.147133 -36.980350 332.896027
21 200.746536 -219.926590 148.838394 -94.250916 -34.147198 -36.982109 332.896027
[L_Toe3_01]
19 188.832520 -219.859131 -191.078659 -95.121498 15.022013 -45.004925 347.140900
20 188.832520 -219.859131 -191.078659 -95.121498 15.022013 -45.004925 347.140900
21 188.832520 -219.859131 -191.078659 -95.121498 15.022013 -45.004925 347.140900
[planeAlignerLeft]
19 0.812531 -811.448792 -0.314951 0.000000 -90.000000 -90.001900 811.449280
20 0.812531 -811.448792 -0.314951 0.000000 -90.000000 -90.001900 811.449280
21 0.812531 -811.448792 -0.314951 0.000000 -90.000000 -90.001900 811.449280
[L_Toe1_02]
19 413.761139 0.000477 0.000000 0.000203 -25.410625 -0.000182 413.761139
20 413.761139 0.000477 0.000000 0.000203 -25.410625 -0.000182 413.761139
21 413.761139 0.000477 0.000000 0.000203 -25.410625 -0.000182 413.761139
[L_Toe1_03]
19 464.317322 0.000358 -0.000089 0.005741 66.406143 0.005741 464.317322
20 464.317322 0.000358 -0.000089 0.005740 66.405449 0.005740 464.317322
21 464.317322 0.000358 -0.000089 0.005740 66.404671 0.005740 464.317322
[L_Toe2_02]
19 342.235809 -0.000477 0.000238 0.001186 -73.657097 0.001186 342.235809
20 342.235809 -0.000477 0.000238 0.001186 -73.655762 0.001186 342.235809
21 342.235809 -0.000477 0.000238 0.001186 -73.654312 0.001186 342.235809
[L_Toe2_03]
19 420.210846 -0.000715 0.000000 -0.058774 88.844788 -0.055277 420.210846
20 420.210846 -0.000715 0.000000 -0.058723 88.843605 -0.055227 420.210846
21 420.210846 -0.000715 0.000000 -0.058674 88.842255 -0.055177 420.210846
[L_Toe3_02]
19 329.270111 0.000954 0.000000 0.004676 -84.264549 0.004676 329.270111
20 329.270111 0.000954 0.000000 0.004676 -84.262665 0.004676 329.270111
21 329.270111 0.000954 0.000000 0.004676 -84.260658 0.004676 329.270111
[L_Toe3_03]
19 439.137451 -0.001907 0.000954 179.992401 55.383629 179.999725 439.137451
20 439.137451 -0.001907 0.000954 179.992401 55.384907 179.999725 439.137451
21 439.137451 -0.001907 0.000954 179.992401 55.386189 179.999725 439.137451
[planeLockWeightLeft]
19 -0.000954 0.000238 -0.000305 -0.011826 -0.004376 0.005620 0.001029
20 -0.000954 0.000238 -0.000305 -0.011826 -0.004376 0.005620 0.001029
21 -0.000954 0.000238 -0.000305 -0.011826 -0.004376 0.005620 0.001029
[R_Leg01]
19 761.455627 -0.001907 -0.000358 73.085953 -6.127821 106.531769 761.455688
20 761.455627 -0.001907 -0.000358 73.065140 -6.120767 106.530502 761.455688
21 761.455627 -0.001907 -0.000358 73.037750 -6.111742 106.528938 761.455688
[R_Leg02]
19 1441.140625 0.000000 -0.000238 20.170263 31.315775 -150.546982 1441.140625
20 1441.140625 0.000000 -0.000238 20.170263 31.315775 -150.546982 1441.140625
21 1441.140625 0.000000 -0.000238 20.170263 31.315775 -150.546982 1441.140625
[R_Leg03]
19 1686.963989 0.000954 0.001431 0.209315 -0.161957 166.977676 1686.963989
20 1686.963989 0.000954 0.001431 0.209315 -0.161957 166.977676 1686.963989
21 1686.963989 0.000954 0.001431 0.209315 -0.161957 166.977676 1686.963989
[R_Foot]
19 3041.560059 -30.531288 -11.204481 41.826736 -45.144894 36.775356 3041.734131
20 3041.560059 -30.531288 -11.204481 41.845764 -45.160912 36.754986 3041.734131
21 3041.560059 -30.531288 -11.204481 41.870777 -45.182274 36.728115 3041.734131
[planeAlignerRight]
19 -0.635147 -812.270569 -0.364304 0.000000 -89.960434 -90.005180 812.270874
20 -0.635147 -812.270569 -0.364304 0.000000 -89.960434 -90.005180 812.270874
21 -0.635147 -812.270569 -0.364304 0.000000 -89.960434 -90.005180 812.270874
[R_Toe1_01]
19 -188.383347 -224.864899 21.052242 90.575348 8.462499 175.364456 294.101532
20 -188.383347 -224.864899 21.052242 90.575348 8.462499 175.364456 294.101532
21 -188.383347 -224.864899 21.052242 90.575348 8.462501 175.364456 294.101532
[R_Toe2_01]
19 200.637817 -220.002121 -148.787384 -82.259262 10.457789 -29.565493 332.857574
20 200.637817 -220.002121 -148.787384 -82.259308 10.457805 -29.565464 332.857574
21 200.637817 -220.002121 -148.787384 -82.259369 10.457820 -29.565441 332.857574
[R_Toe3_01]
19 188.606735 -220.092957 191.126343 -69.666367 -41.490078 -42.966988 347.192566
20 188.606735 -220.092957 191.126343 -69.666382 -41.490116 -42.966980 347.192566
21 188.606735 -220.092957 191.126343 -69.666374 -41.490147 -42.966953 347.192566
[planeLockWeightRight]
19 -0.000477 0.000000 0.000000 -0.011823 -0.004379 -0.000027 0.000477
20 -0.000477 0.000000 0.000000 -0.011823 -0.004379 -0.000027 0.000477
21 -0.000477 0.000000 0.000000 -0.011823 -0.004379 -0.000027 0.000477
[R_Toe1_02]
19 413.762085 0.000477 -0.000119 0.001408 -22.871460 0.001408 413.762085
20 413.762085 0.000477 -0.000119 0.001408 -22.870682 0.001408 413.762085
21 413.762085 0.000477 -0.000119 0.001408 -22.869904 0.001408 413.762085
[R_Toe1_03]
19 464.317810 0.000000 0.001088 0.012354 79.097755 0.012354 464.317810
20 464.317810 0.000000 0.001088 0.012354 79.097755 0.012354 464.317810
21 464.317810 0.000000 0.001088 0.012354 79.097649 0.012354 464.317810
[R_Toe2_02]
19 342.234741 -0.000954 0.000238 0.001192 -69.583298 0.001192 342.234741
20 342.234741 -0.000954 0.000238 0.001192 -69.583298 0.001192 342.234741
21 342.234741 -0.000954 0.000238 0.001192 -69.583298 0.001192 342.234741
[R_Toe2_03]
19 420.210846 0.000715 -0.000268 0.011857 78.638649 0.011857 420.210846
20 420.210846 0.000715 -0.000268 0.011857 78.638672 0.011857 420.210846
21 420.210846 0.000715 -0.000268 0.011857 78.638725 0.011857 420.210846
[R_Toe3_02]
19 329.270355 -0.000477 -0.000954 0.001179 -79.434776 0.001179 329.270355
20 329.270355 -0.000477 -0.000954 0.001179 -79.434776 0.001179 329.270355
21 329.270355 -0.000477 -0.000954 0.001179 -79.434776 0.001179 329.270355
[R_Toe3_03]
19 439.137939 0.000238 0.001431 -179.993027 82.448250 -179.989517 439.137939
20 439.137939 0.000238 0.001431 -179.993027 82.448227 -179.989517 439.137939
21 439.137939 0.000238 0.001431 -179.993027 82.448174 -179.989517 439.137939
[Rear_Leg02]
19 1162.777710 -0.029802 0.005960 -37.752251 25.142025 -111.626602 1162.777710
20 1162.777710 -0.029802 0.005960 -37.665310 25.097670 -111.589073 1162.777710
21 1162.777710 -0.029802 0.005960 -37.578434 25.053267 -111.551605 1162.777710
[Rear_Leg03]
19 607.192505 -0.013351 -0.073195 0.010080 -0.005878 76.846329 607.192505
20 607.192505 -0.013351 -0.073195 0.010080 -0.005878 76.846329 607.192505
21 607.192505 -0.013351 -0.073195 0.010080 -0.005878 76.846329 607.192505
[Rear_Leg04]
19 995.874512 -0.020504 -0.011921 -0.042982 -0.017811 89.140625 995.874573
20 995.874512 -0.020504 -0.011921 -0.042982 -0.017811 89.140625 995.874573
21 995.874512 -0.020504 -0.011921 -0.042982 -0.017811 89.140625 995.874573
[Rear_Foot]
19 3096.176270 -0.067472 -0.041425 56.363712 43.522774 -122.667984 3096.176270
20 3096.176270 -0.067472 -0.041425 56.345863 43.611759 -122.680145 3096.176270
21 3096.176270 -0.067472 -0.041425 56.327961 43.700748 -122.692352 3096.176270
[planeAlignerCenter]
19 0.350077 0.966311 -838.790894 0.000009 0.000003 -179.999985 838.791565
20 0.350077 0.966311 -838.790894 0.000009 0.000003 -179.999985 838.791565
21 0.350077 0.966311 -838.790894 0.000009 0.000003 -179.999985 838.791565
[Rear_Toe1_01]
19 0.653352 83.966492 -371.173737 5.378624 30.450394 103.608109 380.553192
20 0.653352 83.966492 -371.173737 5.378548 30.449770 103.608131 380.553192
21 0.653352 83.966492 -371.173737 5.378474 30.449141 103.608162 380.553192
[Rear_Toe2_01]
19 178.200760 -294.826019 -362.060547 -8.740564 22.940413 -73.397163 499.765686
20 178.200760 -294.826019 -362.060547 -8.740534 22.939823 -73.397148 499.765686
21 178.200760 -294.826019 -362.060547 -8.740505 22.939238 -73.397141 499.765686
[Rear_Toe3_01]
19 -153.359680 -308.780914 -362.060852 3.776559 19.486601 -119.571724 499.952881
20 -153.359680 -308.780914 -362.060852 3.776780 19.486029 -119.571693 499.952881
21 -153.359680 -308.780914 -362.060852 3.777002 19.485462 -119.571686 499.952881
[planeLockWeightCenter]
19 -0.000062 0.000238 0.000000 -0.011814 -0.004373 -0.000015 0.000246
20 -0.000062 0.000238 0.000000 -0.011814 -0.004373 -0.000015 0.000246
21 -0.000062 0.000238 0.000000 -0.011814 -0.004373 -0.000015 0.000246
[Rear_Toe1_02]
19 379.707825 0.194073 0.000477 -0.000338 -32.978836 0.006988 379.707855
20 379.707825 0.194073 0.000477 -0.000338 -32.979660 0.006988 379.707855
21 379.707825 0.194073 0.000477 -0.000338 -32.980476 0.006988 379.707855
[Rear_Toe1_03]
19 500.129700 0.165701 0.000119 -0.004071 60.579967 -0.000456 500.129761
20 500.129700 0.165701 0.000119 -0.004071 60.580650 -0.000456 500.129761
21 500.129700 0.165701 0.000119 -0.004071 60.581291 -0.000456 500.129761
[Rear_Toe2_02]
19 340.494507 0.000238 -0.000954 0.001179 -79.109550 0.001179 340.494507
20 340.494507 0.000238 -0.000954 0.001179 -79.110435 0.001179 340.494507
21 340.494507 0.000238 -0.000954 0.001179 -79.111237 0.001179 340.494507
[Rear_Toe2_03]
19 433.103577 0.000000 0.000238 0.031777 85.766769 0.031777 433.103546
20 433.103577 0.000000 0.000238 0.031783 85.767563 0.031783 433.103546
21 433.103577 0.000000 0.000238 0.031788 85.768295 0.031788 433.103546
[Rear_Toe3_02]
19 340.494141 -0.000358 -0.000477 -0.002471 -50.111042 -0.002471 340.494171
20 340.494141 -0.000358 -0.000477 -0.002471 -50.111855 -0.002471 340.494171
21 340.494141 -0.000358 -0.000477 -0.002471 -50.112690 -0.002471 340.494171
[Rear_Toe3_03]
19 433.103577 0.001431 -0.000238 0.000411 44.457962 -0.003381 433.103546
20 433.103577 0.001431 -0.000238 0.000411 44.458881 -0.003381 433.103546
21 433.103577 0.001431 -0.000238 0.000411 44.459797 -0.003381 433.103546
[Back_Bone]
19 1312.175781 -701.934692 0.000954 14.436758 2.868636 -96.602402 1488.125488
20 1312.175781 -701.934692 0.000954 14.436758 2.868636 -96.602402 1488.125488
21 1312.175781 -701.934692 0.000954 14.436758 2.868636 -96.602402 1488.125488
[Head]
19 1406.159424 809.709290 0.001431 4.759905 14.176731 40.831051 1622.625488
20 1406.159424 809.709290 0.001431 4.759904 14.176730 40.831047 1622.625488
21 1406.159424 809.709290 0.001431 4.759903 14.176730 40.831047 1622.625488
[Motor_Bone]
19 1158.364380 -417.834747 0.000477 0.027795 8.545218 -97.651237 1231.419434
20 1158.364380 -417.834747 0.000477 0.033390 8.492218 -97.900345 1231.419434
21 1158.364380 -417.834747 0.000477 0.039218 8.439247 -98.149437 1231.419434
[Ping_Mechanism]
19 1204.609985 -413.932190 50.723125 0.000103 -0.000053 82.120995 1274.754150
20 1204.611450 -413.939026 50.726017 0.000103 -0.000053 82.120995 1274.757690
21 1204.612793 -413.945892 50.728905 0.000103 -0.000053 82.120995 1274.761353
[BN_LookIK]
19 193.241119 1380.371704 -0.002861 0.000000 89.965736 -31.038179 1393.832153
20 193.241119 1380.371704 -0.002861 0.000000 89.965736 -31.038179 1393.832153
21 193.241119 1380.371704 -0.002861 0.000000 89.965736 -31.038179 1393.832153
[bottomMouth]
19 -435.092926 615.759399 -0.000954 -0.000022 0.000016 73.527184 753.966492
20 -435.092926 615.759399 -0.000954 -0.000022 0.000016 73.527184 753.966492
21 -435.092926 615.759399 -0.000954 -0.000022 0.000016 73.527184 753.966492
[L_Mouth01]
19 554.440979 7.658243 838.222046 150.204178 23.759130 109.605339 1005.027161
20 554.440979 7.658243 838.222046 150.204178 23.759130 109.605339 1005.027161
21 554.440979 7.658243 838.222046 150.204178 23.759130 109.605339 1005.027161
[L_mouthFront]
19 551.629089 934.514771 339.150421 0.000081 2.804060 79.119301 1136.941284
20 551.629089 934.514771 339.150421 0.000081 2.804060 79.119301 1136.941284
21 551.629089 934.514771 339.150421 0.000081 2.804060 79.119301 1136.941284
[mouthGun]
19 55.332661 1627.420898 0.000000 0.000023 0.000009 -11.038128 1628.361328
20 55.332661 1627.420898 0.000000 0.000023 0.000009 -11.038128 1628.361328
21 55.332661 1627.420898 0.000000 0.000023 0.000009 -11.038128 1628.361328
[R_Mouth01]
19 554.442383 7.659197 -838.223938 29.795891 -23.759109 109.605331 1005.029541
20 554.442383 7.659197 -838.223938 29.795891 -23.759109 109.605331 1005.029541
21 554.442383 7.659197 -838.223938 29.795891 -23.759109 109.605331 1005.029541
[R_mouthFront]
19 551.629089 934.514282 -339.151367 0.000029 -2.803930 79.119133 1136.941162
20 551.629089 934.514282 -339.151367 0.000029 -2.803930 79.119133 1136.941162
21 551.629089 934.514282 -339.151367 0.000029 -2.803930 79.119133 1136.941162
[TopMouth]
19 461.269867 -56.106091 -0.008583 -0.000059 -0.000268 92.025169 464.669525
20 461.269867 -56.106091 -0.008583 -0.000059 -0.000268 92.025169 464.669525
21 461.269867 -56.106091 -0.008583 -0.000059 -0.000268 92.025169 464.669525
[weapon_bone]
19 -987.239868 1448.372803 0.001431 0.000000 89.965736 -31.038221 1752.833740
20 -987.239868 1448.372803 0.001431 0.000000 89.965736 -31.038221 1752.833740
21 -987.239868 1448.372803 0.001431 0.000000 89.965736 -31.038221 1752.833740
